<svg width="30" height="30" viewBox="0 0 76 75" fill="none" xmlns="http://www.w3.org/2000/svg">
<path d="M57.6189 27.0448H56.3811V18.1374C56.3814 8.13642 48.1358 0 38.0004 0C27.8653 0 19.6197 8.13642 19.6197 18.1374V27.0448H18.3811C14.7703 27.0448 11.8324 29.9441 11.8324 33.5073V68.5372C11.8324 72.1004 14.7703 74.9996 18.3811 74.9996H57.6189C61.2297 74.9996 64.1676 72.1004 64.1676 68.5372V33.5073C64.1676 29.9441 61.23 27.0448 57.6189 27.0448ZM25.2328 18.1374C25.2328 11.1908 30.9604 5.53925 38.0004 5.53925C45.0403 5.53925 50.768 11.1908 50.768 18.1374V27.0448H25.2328V18.1374ZM58.5545 68.5375C58.5545 69.0379 58.126 69.4607 57.6189 69.4607H18.3811C17.874 69.4607 17.4455 69.0379 17.4455 68.5375V33.5073C17.4455 33.0069 17.874 32.5841 18.3811 32.5841H22.4262H53.5745H57.6189C58.126 32.5841 58.5545 33.0069 58.5545 33.5073V68.5375Z" fill="#D3D3D3"/>
<path d="M37.9996 42.951C36.4497 42.951 35.1931 44.1907 35.1931 45.7206V56.3246C35.1931 57.8545 36.4497 59.0942 37.9996 59.0942C39.5496 59.0942 40.8062 57.8545 40.8062 56.3246V45.7206C40.8062 44.1907 39.5496 42.951 37.9996 42.951Z" fill="#D3D3D3"/>
</svg>
