<?xml version="1.0" standalone="no"?>
<!DOCTYPE svg PUBLIC "-//W3C//DTD SVG 20010904//EN"
 "http://www.w3.org/TR/2001/REC-SVG-20010904/DTD/svg10.dtd">
<svg version="1.0" xmlns="http://www.w3.org/2000/svg"
 width="700.000000pt" height="445.000000pt" viewBox="0 0 700.000000 445.000000"
 preserveAspectRatio="xMidYMid meet">
<metadata>
Created by potrace 1.16, written by Peter Selinger 2001-2019
</metadata>
<g transform="translate(0.000000,445.000000) scale(0.100000,-0.100000)"
fill="#000000" stroke="none">
<path d="M0 4327 l0 -123 58 -29 c40 -20 52 -30 39 -33 -16 -3 -17 -5 -3 -15
8 -7 16 -23 18 -37 3 -23 0 -25 -32 -23 -35 2 -36 1 -32 -32 4 -30 1 -35 -22
-41 l-26 -6 0 -1994 0 -1994 3500 0 3500 0 0 2225 0 2225 -2244 0 c-1486 0
-2247 -3 -2251 -10 -3 -5 -12 -10 -18 -10 -7 0 -6 4 3 10 10 6 -425 10 -1237
10 l-1253 0 0 -123z m630 -402 c80 -35 226 -98 325 -140 227 -98 241 -105 225
-115 -7 -4 -10 -12 -6 -18 3 -6 -2 -24 -11 -42 -16 -28 -21 -30 -53 -25 -42 8
-87 30 -118 58 -14 14 -37 21 -65 22 -50 1 -148 45 -178 79 -17 20 -26 23 -49
16 -21 -6 -32 -4 -41 6 -7 8 -19 13 -28 11 -21 -4 -109 34 -165 72 -45 32 -54
47 -62 103 -8 65 25 61 226 -27z m1356 -495 c6 0 27 -14 45 -31 23 -21 27 -27
12 -19 -13 6 -23 8 -23 5 0 -2 35 -22 78 -44 82 -41 102 -65 102 -121 0 -15 5
-30 12 -32 8 -3 8 -9 0 -24 -6 -10 -12 -13 -12 -6 0 13 -49 36 -58 27 -3 -3 2
-11 12 -18 16 -12 16 -13 -5 -14 -31 -3 -34 -9 -12 -37 15 -19 23 -22 32 -13
6 6 11 17 11 24 0 7 4 13 9 13 5 0 9 -6 8 -12 -1 -34 4 -48 17 -48 22 0 28
-16 15 -44 -10 -21 -15 -23 -36 -15 -33 12 -35 12 -28 -11 5 -15 2 -20 -14
-20 -11 0 -23 -4 -26 -10 -3 -5 3 -10 15 -10 12 0 19 -4 15 -9 -3 -5 3 -12 14
-16 38 -12 101 -65 120 -102 16 -31 21 -35 26 -20 4 9 5 31 3 48 -8 51 18 129
54 163 18 17 38 40 43 50 29 52 161 27 236 -43 34 -33 39 -43 39 -84 0 -25 -4
-49 -10 -52 -5 -3 -10 -15 -10 -26 0 -10 -6 -19 -13 -19 -15 0 -44 -47 -35
-56 4 -3 15 -1 25 4 20 10 159 16 173 7 17 -10 -23 -75 -50 -82 -14 -3 -28
-10 -31 -16 -11 -16 -43 1 -95 51 -28 26 -56 47 -62 48 -33 3 -34 5 -18 28 19
30 10 37 -24 20 -14 -8 -21 -14 -16 -14 5 0 0 -10 -11 -22 -28 -32 -40 -53
-23 -43 8 5 11 3 8 -6 -3 -8 -15 -15 -27 -17 -16 -3 -20 -7 -12 -16 8 -9 3
-25 -18 -59 -23 -36 -34 -44 -50 -40 -33 8 -27 -23 26 -139 44 -98 63 -128 79
-128 4 0 27 -20 50 -45 38 -39 46 -43 71 -36 15 5 63 14 106 20 67 11 79 10
93 -3 20 -20 28 -20 45 1 8 10 9 14 2 10 -6 -4 -14 -3 -18 3 -3 5 -1 10 6 10
8 0 5 7 -6 20 -9 10 -15 26 -12 35 4 9 1 15 -8 15 -8 0 -15 9 -15 20 0 12 5
17 14 14 8 -3 17 -1 20 4 3 5 -3 12 -14 15 -24 6 -35 30 -25 55 5 11 9 13 12
5 3 -7 12 -13 21 -13 10 0 13 3 7 8 -16 12 -11 36 10 48 38 22 167 84 174 84
10 0 34 -104 36 -161 2 -26 6 -52 9 -58 4 -6 2 -11 -5 -11 -7 0 -9 -3 -6 -7 4
-3 2 -12 -4 -20 -6 -7 -8 -13 -3 -13 5 0 2 -5 -6 -10 -11 -7 -19 -2 -32 23
l-17 32 5 -30 c6 -38 -9 -112 -21 -105 -6 3 -9 7 -9 10 1 3 5 15 8 27 7 21 4
22 -31 18 -21 -2 -44 -4 -50 -4 -7 -1 -12 -6 -10 -13 1 -6 -15 -21 -35 -32
-21 -12 -38 -26 -38 -33 0 -11 48 -29 133 -49 25 -6 28 -11 25 -35 -3 -16 -1
-29 3 -29 5 0 6 -6 3 -14 -4 -12 11 -15 78 -18 46 -2 85 -2 87 -1 7 4 -30 138
-44 159 -14 21 -12 22 38 28 29 3 133 4 232 1 222 -6 324 -29 590 -132 99 -39
205 -78 235 -88 30 -10 101 -35 158 -57 57 -21 126 -43 152 -49 52 -11 100
-42 100 -64 0 -7 6 -15 13 -18 13 -5 51 -71 53 -92 0 -5 4 -18 9 -28 4 -10 5
-20 3 -23 -7 -6 -91 -13 -101 -7 -13 8 12 42 35 45 34 5 34 27 0 34 -21 4 -29
11 -25 20 3 8 0 14 -6 14 -6 0 -10 -3 -10 -7 4 -24 -4 -25 -17 -3 -8 14 -13
17 -10 7 3 -10 6 -22 6 -27 0 -5 10 -12 21 -15 l21 -7 -20 -21 -21 -21 -45 24
c-25 12 -43 27 -39 33 4 6 0 8 -10 4 -11 -4 -17 -1 -17 8 0 7 -7 21 -16 29
-14 15 -13 16 13 16 15 0 41 -7 57 -15 35 -19 33 -19 39 6 4 17 3 19 -6 10
-17 -17 -31 -13 -17 4 19 23 7 29 -66 32 -53 3 -72 0 -107 -19 -23 -13 -44
-26 -48 -30 -3 -4 -26 -7 -52 -6 -54 3 -70 16 -90 74 -10 26 -22 41 -38 46
-93 27 -300 69 -378 78 -81 9 -106 17 -179 55 -50 26 -90 41 -96 37 -6 -5 -27
-9 -46 -11 -19 -1 -57 -8 -85 -16 -27 -8 -67 -17 -88 -20 l-38 -6 23 -30 c13
-16 36 -43 51 -60 58 -63 55 -85 -28 -209 -63 -95 -139 -161 -118 -102 6 15 4
15 -15 -2 -12 -11 -22 -15 -22 -10 0 5 -13 9 -30 9 -16 0 -30 -1 -30 -3 0 -6
67 -29 93 -31 4 -1 7 -9 7 -18 -1 -43 -183 -124 -222 -99 -10 6 -18 13 -18 16
0 3 23 21 51 40 67 46 100 109 56 110 -7 0 -30 14 -51 30 -39 29 -63 39 -51
21 9 -16 -16 -25 -62 -22 -23 1 -61 -3 -84 -9 -22 -6 -43 -9 -45 -7 -10 10 10
36 34 46 15 5 41 18 57 28 17 10 32 19 34 20 2 2 -2 11 -10 20 -27 35 -39 62
-29 68 10 6 82 145 75 145 -2 0 -26 -32 -55 -70 -71 -95 -116 -104 -181 -36
-30 32 -35 34 -88 30 -31 -2 -47 -1 -36 2 11 3 36 10 56 15 29 7 38 15 47 46
11 35 10 39 -15 59 -15 12 -35 19 -44 17 -11 -3 -34 11 -62 36 -43 40 -117 80
-148 81 -14 0 -97 116 -165 230 -11 19 -26 35 -32 34 -7 -1 -40 -2 -74 -4 -35
-1 -52 -5 -38 -7 14 -3 29 -9 34 -14 6 -5 26 -9 45 -9 28 -1 32 -3 19 -10 -17
-10 -171 2 -271 21 -65 12 -71 5 -10 -11 26 -7 70 -19 96 -28 36 -11 71 -13
132 -8 52 4 86 2 90 -4 3 -5 1 -10 -6 -10 -9 0 -9 -3 0 -14 12 -14 -5 -20
-154 -55 -31 -7 -34 -9 -14 -10 15 -1 68 10 118 23 50 13 91 19 91 15 0 -5 7
-9 15 -9 28 0 15 -18 -20 -30 -19 -6 -33 -16 -30 -21 8 -12 52 -12 60 1 4 6
21 -6 38 -27 18 -21 44 -49 60 -64 15 -15 27 -32 27 -37 0 -6 -42 -45 -92 -88
-51 -43 -112 -96 -136 -118 -41 -39 -43 -40 -68 -25 -14 9 -35 31 -47 50 l-21
34 29 -25 c19 -17 26 -20 22 -9 -5 14 0 15 28 9 18 -4 39 -4 46 1 10 6 8 9 -8
9 -39 0 -120 21 -139 35 -17 13 -16 14 12 5 31 -11 187 9 202 25 4 4 -2 5 -13
2 -24 -7 -182 -11 -211 -5 -27 5 -84 46 -84 60 0 7 10 2 23 -10 33 -31 96 -35
210 -13 71 14 105 26 133 47 29 22 36 25 31 11 -6 -16 -3 -16 24 4 55 39 20
43 -92 11 -130 -37 -276 -50 -335 -30 -53 19 -70 13 -51 -15 13 -20 12 -22 -9
-23 -20 -2 -24 3 -24 26 0 15 7 33 15 40 9 7 13 15 10 18 -3 3 7 12 22 19 26
12 26 12 3 7 -14 -4 -29 -7 -33 -8 -14 -2 -145 191 -180 264 -28 58 -32 74
-31 150 0 92 5 119 36 196 20 49 24 53 71 65 48 14 50 16 66 66 9 29 26 63 38
77 32 37 43 61 43 100 0 26 7 40 27 55 23 19 29 20 47 8 51 -34 65 -41 70 -37
10 11 9 77 -3 99 -8 14 -9 21 -2 17 15 -10 14 7 -1 22 -9 9 -9 12 -1 12 7 0
15 -4 18 -10 8 -12 16 -12 34 -1 17 11 11 17 -52 65 -40 29 -44 46 -7 26 12
-6 24 -10 26 -8 2 3 -15 15 -39 27 -26 14 -33 21 -17 17 14 -3 30 -6 36 -6z
m2458 -30 c19 0 23 -59 4 -78 -17 -17 -2 -15 25 3 21 13 23 13 24 -3 3 -30 23
-73 32 -68 5 4 7 -3 4 -14 -3 -11 -12 -20 -20 -20 -13 0 -13 -3 -2 -16 12 -14
14 -13 22 8 8 22 9 22 22 5 8 -11 16 -14 19 -8 4 6 13 8 21 4 8 -3 15 0 15 7
0 8 -9 10 -26 6 -17 -5 -23 -3 -19 4 10 16 45 12 52 -6 9 -24 -15 -92 -40
-109 -28 -20 -47 -19 -47 3 0 13 -2 14 -9 4 -4 -7 -6 -24 -4 -36 4 -19 -4 -29
-39 -53 -23 -16 -63 -43 -88 -60 -54 -37 -100 -50 -100 -29 0 8 10 22 23 31
22 17 22 17 -15 13 -29 -3 -35 -1 -26 9 6 7 22 13 37 14 26 1 26 1 -4 10 -16
5 -36 7 -42 4 -17 -6 -11 34 6 44 9 6 6 10 -10 14 -13 4 -26 1 -30 -4 -15 -25
-17 11 -3 57 13 44 13 50 -1 60 -21 15 -19 81 3 123 15 28 33 40 93 64 41 16
76 34 78 40 2 6 9 3 16 -6 7 -9 20 -17 29 -17z m-1866 -31 c-28 -16 -23 -42 6
-37 17 3 23 1 19 -8 -2 -7 5 -17 16 -24 12 -6 21 -15 21 -20 0 -15 33 -50 47
-50 7 0 17 -10 24 -22 6 -13 19 -30 29 -38 17 -14 15 -18 -26 -68 -38 -46 -50
-51 -45 -19 1 4 -8 17 -19 29 -11 12 -20 25 -20 29 0 4 -13 5 -28 3 -30 -5
-72 25 -72 51 0 8 -6 18 -14 22 -22 13 -29 78 -11 97 9 8 16 18 15 21 -1 18 2
23 23 33 30 14 59 16 35 1z m2023 -362 c13 -26 29 -52 36 -58 17 -15 -4 -56
-60 -117 -65 -70 -121 -102 -182 -102 -37 0 -56 5 -67 18 -44 50 -43 94 3 117
15 8 30 15 32 15 3 0 7 -18 11 -41 l7 -41 53 5 c29 2 58 7 64 11 15 9 4 37
-21 57 -17 14 -18 20 -9 48 6 17 18 39 27 47 8 8 15 24 15 35 0 34 17 54 43
54 21 0 30 -9 48 -48z m-3625 -235 c-8 -14 22 -70 42 -76 11 -4 23 -17 26 -30
3 -13 8 -30 11 -38 4 -10 -18 -13 -112 -12 -83 1 -118 4 -117 12 2 29 5 32 27
32 39 0 61 23 54 57 -5 25 -2 32 16 41 18 9 41 18 55 21 2 1 1 -2 -2 -7z
m3734 -67 c21 -22 46 -102 35 -113 -3 -3 -5 2 -5 11 0 9 -4 19 -10 22 -6 4 -8
-5 -5 -22 3 -15 1 -35 -5 -43 -9 -13 -11 -13 -20 0 -5 8 -10 20 -10 25 0 6 4
3 10 -5 5 -8 12 -12 15 -8 9 9 -25 58 -39 57 -7 0 -6 -2 2 -6 6 -2 12 -9 12
-14 0 -6 -5 -7 -12 -3 -17 11 -71 6 -83 -8 -7 -7 -2 -9 17 -4 14 3 34 3 43 0
20 -8 48 -62 41 -80 -10 -25 14 -15 26 11 17 38 28 30 26 -20 -1 -29 -5 -42
-12 -38 -6 3 0 -6 14 -21 14 -15 32 -32 41 -36 13 -8 15 -5 11 15 -5 26 3 31
28 16 21 -14 30 -3 20 24 -12 32 22 54 96 60 38 3 61 11 70 22 7 10 15 15 18
12 19 -18 51 -305 37 -327 -4 -7 -24 -17 -43 -21 -32 -7 -41 -4 -79 26 -24 19
-50 47 -58 61 -25 47 -23 6 2 -45 13 -26 29 -75 36 -108 7 -33 17 -79 22 -102
9 -44 11 -106 2 -70 -4 18 -6 17 -29 -4 l-24 -22 0 42 c0 67 -30 192 -58 245
-36 66 -141 161 -206 185 -44 16 -73 18 -220 16 -124 -3 -177 0 -195 9 -14 7
-53 16 -86 20 -33 4 -87 12 -120 17 -33 6 -79 12 -102 15 l-41 6 15 43 c18 53
51 69 144 70 37 0 65 3 62 8 -2 4 -11 7 -19 7 -54 0 38 75 105 86 32 5 42 3
57 -15 10 -11 30 -21 45 -21 14 0 28 -3 32 -6 11 -12 -5 -34 -26 -34 -20 0
-20 0 2 -24 15 -16 29 -22 47 -18 21 4 25 1 22 -14 -2 -11 -13 -20 -26 -22
-12 -2 -22 -7 -22 -12 0 -19 45 8 58 33 14 29 42 37 42 12 0 -10 14 -2 41 23
24 24 39 47 37 58 -6 33 122 78 173 61 15 -4 36 -19 49 -32z m-2408 -787 c-13
-16 -6 -28 28 -47 l25 -14 -19 22 c-11 11 -14 21 -9 21 6 0 16 -7 23 -15 7 -8
17 -15 23 -15 5 0 2 10 -9 23 l-19 22 25 -21 c14 -12 34 -24 44 -28 10 -3 16
-9 13 -12 -3 -3 -16 -1 -29 6 -18 9 -17 6 7 -14 25 -22 27 -26 12 -32 -10 -3
-27 -4 -40 -1 -21 6 -21 5 -3 -8 11 -8 16 -18 13 -22 -4 -4 -13 -1 -19 5 -7 7
-21 12 -32 12 -12 0 -36 9 -54 20 -18 11 -40 20 -49 20 -13 0 -12 -5 7 -25 13
-14 29 -25 36 -25 7 0 19 -10 25 -22 9 -19 9 -21 -2 -10 -7 6 -20 12 -29 12
-9 0 -28 12 -42 28 -48 51 -58 92 -22 92 8 0 14 4 14 9 0 5 13 16 29 24 22 11
32 12 41 3 8 -8 9 -6 4 9 -6 16 -4 18 6 8 10 -9 10 -16 2 -25z m2283 -295 c-2
-24 0 -32 6 -22 5 8 9 24 9 37 0 12 5 22 10 22 6 0 10 -3 10 -7 -1 -18 -26
-93 -30 -89 -3 2 -5 -9 -5 -26 0 -23 6 -34 23 -41 21 -9 22 -15 16 -51 -8 -51
-14 -62 -25 -45 -5 8 -3 17 4 21 8 5 6 8 -5 8 -10 0 -18 5 -18 11 0 5 -8 9
-17 8 -25 -4 -60 17 -65 39 -4 16 0 18 32 18 44 -1 44 21 1 30 -14 3 -30 7
-35 8 -22 5 -12 35 14 45 16 5 36 23 45 40 21 42 34 39 30 -6z m-435 -208
c-12 -14 -3 -25 21 -25 23 0 39 -29 39 -69 0 -68 -62 -180 -100 -181 -8 0 -21
-4 -29 -9 -12 -8 -12 -12 -2 -25 11 -13 10 -17 -4 -22 -12 -5 -24 1 -37 17
-15 19 -18 34 -13 74 4 28 10 84 15 125 13 103 15 111 29 119 6 4 13 17 14 29
l1 21 38 -21 c26 -15 35 -25 28 -33z m1719 -97 c11 -10 14 -10 18 0 10 25 33
12 33 -19 0 -31 -1 -31 -45 -27 l-44 3 -3 -40 c-2 -30 -8 -40 -24 -45 -21 -5
-21 -5 -2 -45 10 -22 16 -32 14 -23 -3 10 -1 20 5 23 6 4 9 -34 7 -107 l-3
-113 -30 0 c-28 0 -30 3 -33 39 -2 22 2 42 8 46 9 6 9 13 1 28 -15 28 -14 59
2 66 10 5 10 7 0 12 -8 3 -13 26 -13 59 0 51 1 54 27 57 19 2 29 9 30 23 l3
20 -9 -20 c-6 -14 -8 -7 -7 27 1 44 3 48 27 48 14 0 31 -6 38 -12z m149 -50
c-3 -56 -5 -63 -23 -61 -11 1 -14 0 -7 -3 10 -5 10 -10 -3 -24 -15 -16 -13
-19 20 -34 20 -10 43 -15 53 -13 13 4 12 5 -4 6 -23 1 -29 31 -7 31 8 0 11 -4
8 -10 -3 -5 1 -10 10 -10 9 0 14 4 11 8 -2 4 5 9 17 9 17 2 19 0 7 -7 -8 -5
-15 -17 -15 -27 0 -14 -7 -18 -32 -17 l-32 2 -3 -97 c-3 -95 -3 -96 -28 -96
-14 0 -28 5 -32 10 -4 6 -8 97 -8 203 l0 192 35 0 36 0 -3 -62z m-3334 -209
c14 -18 31 -48 39 -64 18 -38 31 -140 21 -157 -15 -24 -13 -63 5 -94 15 -25
21 -63 27 -175 5 -110 9 -136 16 -111 8 31 21 46 17 20 -3 -19 14 -53 29 -56
6 -1 12 5 12 13 0 8 3 14 8 14 16 -3 32 1 31 9 -3 20 2 32 15 32 16 0 28 -37
15 -46 -5 -3 -9 -14 -9 -24 0 -14 -7 -18 -27 -17 -25 2 -28 -2 -33 -38 -8 -55
-16 -65 -54 -65 -35 0 -59 19 -55 42 2 13 -5 37 -20 68 -3 8 -5 26 -3 39 3 19
6 21 13 10 22 -35 7 26 -27 107 -20 48 -40 110 -45 138 -12 68 -11 64 -47 120
-35 54 -36 68 -22 166 6 42 15 69 27 78 10 7 17 17 16 22 -6 21 29 0 51 -31z
m1453 -416 c4 -9 2 -18 -4 -20 -6 -2 4 -21 23 -41 41 -45 44 -79 8 -92 -14 -6
-22 -15 -19 -20 4 -6 11 -7 17 -4 6 4 5 -2 -2 -15 -6 -12 -15 -19 -21 -16 -5
4 -9 0 -9 -7 0 -13 -87 -113 -99 -113 -3 0 -26 -15 -50 -33 -24 -17 -52 -32
-62 -32 -22 0 -49 26 -50 48 -7 85 9 115 75 146 30 14 60 26 67 26 24 0 79 63
79 89 0 82 29 132 47 84z m683 -28 c0 -17 25 -20 35 -5 10 17 25 1 47 -49 10
-25 27 -55 37 -66 42 -47 53 -148 20 -179 -9 -8 -10 -8 -4 3 5 9 4 12 -3 7 -7
-4 -12 -13 -12 -21 0 -7 -6 -15 -14 -18 -15 -6 -29 6 -39 35 -6 18 -47 14 -47
-4 0 -6 9 -8 20 -5 21 5 28 -7 10 -18 -16 -10 -50 14 -61 43 -20 52 -37 215
-26 242 9 23 12 31 16 45 3 12 21 4 21 -10z"/>
</g>
</svg>
